<?xml version="1.0" encoding="UTF-8"?>
<svg id="Layer_1" data-name="Layer 1" xmlns="http://www.w3.org/2000/svg" version="1.1" viewBox="0 0 1920 1080">
  <defs>
    <style>
      .cls-1, .cls-2, .cls-3, .cls-4 {
        fill: #6f4f38;
      }

      .cls-1, .cls-5 {
        stroke-width: 0px;
      }

      .cls-2 {
        font-size: 110.66px;
      }

      .cls-2, .cls-3, .cls-4 {
        font-family: BlackMango-Medium, 'Black Mango';
        font-weight: 500;
      }

      .cls-3 {
        font-size: 149.3px;
        opacity: .06;
      }

      .cls-5 {
        fill: #fdd7b1;
        opacity: .35;
      }

      .cls-4 {
        font-size: 62.03px;
        letter-spacing: .08em;
      }
    </style>
  </defs>
  <rect class="cls-5" width="1920" height="1080"/>
  <g>
    <g>
      <g>
        <text class="cls-3" transform="translate(699.85 614.31)"><tspan x="0" y="0">rasodu</tspan></text>
        <text class="cls-2" transform="translate(767.18 602.33)"><tspan x="0" y="0">rasodu</tspan></text>
      </g>
      <path class="cls-1" d="M926.47,453.15c-5.99-.95-10.08-4.63-11.78-10.46-2.75-9.46,3.22-14.98,9.56-20.34,7.06,7.04,13.73,13.68,20.67,20.6-4.55,5.9-9.56,11.6-18.44,10.2ZM994.72,244.54c5.64,1.39,9.39,5.14,10.73,10.8,2.18,9.17-3.6,14.51-9.25,19.18-6.92-6.86-13.68-13.58-20.87-20.71,4.8-5.84,10.23-11.52,19.38-9.27ZM1054.5,333.6c-7.18-7.07-13.91-13.69-20.85-20.54,4.49-5.64,9.36-11.11,17.7-9.94,6.19.87,10.67,4.52,12.36,10.73,2.5,9.2-3.11,14.71-9.21,19.74ZM941.24,406.37c5.73-5.52,12.48-12.02,19.55-18.84,6.19,6.27,12.71,12.86,18.75,18.97-6.57,6.43-13.25,12.99-19.79,19.39-5.48-5.78-12.05-12.71-18.52-19.52ZM999.06,349.07c6.49-6.58,13.11-13.29,19.52-19.79,6.29,6.42,12.88,13.15,19.15,19.55-6.31,6.2-13.14,12.91-19.56,19.22-6.03-5.98-12.82-12.73-19.11-18.98ZM978.8,289.75c-6.18,6.24-12.79,12.92-19.3,19.5-6.2-6.08-12.95-12.7-19.29-18.9,6.48-6.58,13.07-13.28,19.46-19.76,6.38,6.39,13.03,13.06,19.12,19.17ZM914.45,255.62c1.35-5.99,5.2-9.82,11.15-11.16,8.91-2,14.19,3.49,18.93,9.32-7.02,6.91-13.86,13.65-20.88,20.56-5.67-4.54-11.22-9.74-9.19-18.73ZM952.72,349.29c-12.88-12.73-24.55-24.27-36.9-36.47,3.23-3.24,5.54-5.56,8.01-8.03,11.86,12.16,23.35,23.95,35.1,35.98,12.42-12.69,23.78-24.28,35.89-36.65,2.92,3.76,5.14,6.63,7.33,9.46-11.07,10.81-22.83,22.28-34.85,34.01,13.06,12.82,24.79,24.34,37.62,36.93-4,2.58-6.94,4.48-9.95,6.42-10.39-10.72-21.82-22.53-33.52-34.6-12.7,13.03-24.02,24.64-36.17,37.11-2.99-4.14-5.11-7.09-7.46-10.35,10.79-10.45,22.6-21.89,34.9-33.82ZM920.99,348.59c-6.15,6.16-12.94,12.95-19.71,19.73-6.29-6.47-12.87-13.24-19.62-20.18,6.48-6.48,13.15-13.17,19.44-19.47,6.62,6.63,13.39,13.41,19.89,19.92ZM855.92,314.56c1.25-6.28,5.14-10.38,11.33-11.74,8.89-1.96,14.15,3.64,18.93,9.38-7.11,6.89-14.01,13.57-21.1,20.44-5.23-4.39-10.89-9.29-9.15-18.07ZM865.01,364.08c6.77,6.95,13.45,13.79,20.58,21.1-4.34,5.35-9.7,10.81-18.63,8.67-5.67-1.36-9.35-5.07-10.83-10.77-2.35-9.04,3.33-14.22,8.89-19ZM1005.67,440.91c-1.03,6.35-5,10.45-11.08,11.99-8.9,2.25-14.21-3.37-19.42-9.61,7.07-7.03,13.75-13.67,20.71-20.59,5.82,4.58,11.19,9.56,9.79,18.21ZM1063.83,383.71c-1.42,5.92-5.53,9.73-11.43,10.97-8.64,1.81-13.78-3.67-18.26-9.12,6.94-6.85,13.74-13.55,20.97-20.68,5.58,4.48,10.85,9.99,8.72,18.83ZM1068.54,348.97c8.31-7.71,15.04-15.74,16.04-26.96,1.01-11.36-2.12-21.32-10.35-29.36-15.14-14.8-32.05-13.12-56.33,5.78-2.42-2.61-4.89-5.28-7.78-8.4,8.05-7.51,14.99-15.61,16.07-27.06,1.07-11.39-2.22-21.26-10.34-29.35-5.92-5.9-13.17-9.13-21.5-9.93-14.31-1.37-25,5.38-34.29,16.16-7.68-8.29-15.68-15.04-26.92-16.09-11.36-1.06-21.31,2.04-29.4,10.23-6.03,6.09-9.31,13.46-10.05,22.08-1.21,14.14,5.61,24.54,16.49,34.1-2.86,3.12-5.26,5.75-7.54,8.24-23.41-19.15-40.54-21.15-55.82-7.47-6.23,5.59-10.02,12.54-11.22,20.85-2.2,15.15,4.22,26.83,16.02,36.54-8.54,7.61-15.01,15.5-16.15,26.52-1.15,11.11,1.62,20.9,9.44,29.05,5.79,6.04,12.83,9.6,21.17,10.6,14.77,1.78,25.95-4.8,35.09-15.69,3.13,3.03,5.72,5.54,8.73,8.46-8.05,7.52-14.96,15.38-16.07,26.65-1.12,11.37,1.85,21.3,9.94,29.5,6.21,6.3,13.86,9.69,22.61,10.38,14.05,1.09,24.48-5.9,33.16-15.88,23.6,18.57,39.07,20.61,54.44,7.54,6.39-5.44,10.4-12.34,11.87-20.53,2.78-15.59-4.01-27.59-15.17-36.85,2.87-3.51,5.05-6.17,7.16-8.74,23.52,19.1,40.3,20.99,55.58,6.77,6.29-5.86,10.03-13.07,11.1-21.6,1.84-14.74-5-25.84-15.99-35.53Z"/>
    </g>
    <text class="cls-4" transform="translate(580.06 831.3)"><tspan x="0" y="0" xml:space="preserve">Serving  online  soon!</tspan></text>
  </g>
</svg>